<?xml version="1.0" standalone="no"?>
<!DOCTYPE svg PUBLIC "-//W3C//DTD SVG 20010904//EN"
 "http://www.w3.org/TR/2001/REC-SVG-20010904/DTD/svg10.dtd">
<svg version="1.0" xmlns="http://www.w3.org/2000/svg"
 width="260.000000pt" height="260.000000pt" viewBox="0 0 260.000000 260.000000"
 preserveAspectRatio="xMidYMid meet">
<metadata>
Created by potrace 1.11, written by Peter Selinger 2001-2013
</metadata>
<g transform="translate(0.000000,260.000000) scale(0.100000,-0.100000)"
fill="#000000" stroke="none">
<path d="M1015 2235 c-256 -40 -485 -215 -589 -450 -9 -22 -21 -49 -26 -60
-15 -33 -40 -141 -40 -173 0 -45 -11 -92 -22 -92 -6 0 -8 6 -5 13 3 7 -3 18
-13 24 -12 8 -19 31 -24 73 -8 66 -23 100 -44 100 -18 0 -212 -151 -212 -165
0 -17 39 -50 88 -74 24 -12 46 -30 49 -39 4 -9 35 -46 69 -80 57 -58 62 -67
57 -97 -5 -30 2 -44 61 -120 94 -119 239 -262 321 -315 39 -25 80 -55 91 -68
12 -12 33 -22 46 -22 42 0 53 -24 52 -115 -1 -60 -6 -89 -19 -109 -13 -19 -16
-37 -11 -65 3 -22 1 -62 -6 -90 -13 -58 1 -142 29 -173 17 -18 87 -25 109 -10
39 25 58 162 28 207 -14 21 -14 27 0 52 14 27 13 32 -10 72 -18 33 -24 58 -24
105 l0 62 48 -2 c26 -1 50 -3 55 -3 4 -1 7 -46 7 -102 0 -76 -4 -104 -15 -115
-23 -23 -29 -63 -14 -90 10 -20 10 -29 1 -44 -34 -54 -21 -162 24 -207 21 -21
32 -24 61 -20 48 8 60 20 79 85 15 52 15 62 1 107 -10 31 -14 68 -10 96 4 33
1 49 -10 61 -12 11 -16 42 -19 116 l-3 100 40 7 c22 3 61 8 87 11 26 3 52 12
59 20 6 8 26 14 44 14 19 0 39 8 50 20 10 11 24 20 31 20 26 0 64 24 70 44 4
12 21 32 38 46 63 52 130 116 160 156 121 158 190 256 203 284 4 8 9 17 12 20
3 3 11 14 17 25 47 89 60 111 65 115 3 3 14 21 25 40 54 98 164 227 249 292
17 12 36 28 43 35 7 7 17 13 21 13 4 0 34 23 65 50 31 28 61 50 67 50 5 0 9 8
9 19 0 43 -185 128 -460 211 -58 17 -116 36 -130 41 -45 15 -227 49 -268 49
-50 0 -56 -8 -38 -51 7 -19 17 -45 21 -58 7 -23 7 -23 -36 6 -118 81 -248 133
-376 152 -88 13 -125 13 -228 -4z m290 -260 c176 -58 300 -185 360 -368 21
-67 20 -233 -2 -289 -30 -75 -105 -190 -161 -245 -53 -53 -55 -54 -98 -47 -37
5 -50 2 -94 -25 -28 -17 -56 -31 -63 -31 -7 0 -17 -4 -23 -9 -5 -5 -40 -14
-77 -20 -70 -10 -171 0 -191 20 -6 5 -23 9 -39 9 -64 0 -218 136 -258 229 -11
25 -24 54 -29 63 -6 10 -17 58 -25 108 -15 82 -15 97 1 181 9 49 29 116 44
148 35 71 127 172 197 218 132 84 309 106 458 58z"/>
<path d="M965 1743 c-27 -9 -51 -19 -53 -24 -2 -5 -9 -9 -16 -9 -19 0 -106
-60 -148 -102 -57 -57 -68 -86 -68 -181 0 -78 2 -87 32 -128 17 -24 36 -46 41
-48 5 -2 17 -11 26 -20 9 -9 32 -23 51 -31 19 -8 37 -17 41 -22 20 -29 332
-50 404 -27 90 28 210 114 273 195 34 43 36 51 40 133 l4 87 -39 40 c-21 21
-50 45 -63 53 -71 42 -141 73 -191 86 -75 20 -267 18 -334 -2z"/>
</g>
</svg>
